# xmcd CD database file
# Copyright (C) 1997 Ti Kan
# 
# Track frame offsets:
#     150
#     18440
#     33882
#     63005
#     81967
#     96825
#     112165
#     129727
#     144615
#     158022
# 
# Disc length: 2309 seconds
# 
# Revision: 1
# Processed by: cddbd v1.4b41PL1 Copyright (c) Steve Scherf et al.
# Submitted via: DiscPlay 4.0.3
# 
DISCID=7f09030a
DTITLE=Chet Atkins And Mark Knopfler - Neck And Neck
DYEAR=1900
DGENRE=
TTITLE0=Poor Boy Blues
TTITLE1=Sweet Dreams
TTITLE2=There'll Be Some Changes Made
TTITLE3=Just One Time
TTITLE4=So Soft, Your Goodbye
TTITLE5=Yakety Axe
TTITLE6=Tears
TTITLE7=Tahitian Blues
TTITLE8=I'll See You In My Dreams
TTITLE9=The Next Time I'm In Town
EXTD=
EXTT0=
EXTT1=
EXTT2=
EXTT3=
EXTT4=
EXTT5=
EXTT6=
EXTT7=
EXTT8=
EXTT9=
PLAYORDER=
